<?xml version="1.0" encoding="utf-8"?>
<!-- Generator: Adobe Illustrator 25.2.3, SVG Export Plug-In . SVG Version: 6.00 Build 0)  -->
<svg version="1.1" id="Ebene_1" xmlns="http://www.w3.org/2000/svg" xmlns:xlink="http://www.w3.org/1999/xlink" x="0px" y="0px"
	 viewBox="0 0 320 40" style="enable-background:new 0 0 320 40;" xml:space="preserve">
<g>
	<polygon points="38.7,20 33,0.2 33,0 23.9,0 18.3,20 13.5,0.2 13.5,0 0,0 11.1,39.9 11.2,40 23.7,40 28.5,20 33.3,40 45.8,40 
		56.8,0.3 56.9,0 43.4,0 	"/>
	<polygon points="58.7,0 58.7,40 71,40 71,0 61.2,0 	"/>
	<path d="M108.2,21.5c1.4-2,2.1-4.6,2.1-7.7c0-3.9-1.3-7.2-3.8-9.8c-2.5-2.6-6.1-4-10.6-4H74.7v40h12.4V27.5h4L96.5,40h14.1
		l-7.2-14.1C105.2,24.9,106.8,23.5,108.2,21.5z M96.8,15.9c-0.7,0.5-1.6,0.8-2.7,0.8H87v-5.8h7.1c1.1,0,2,0.3,2.7,0.8
		c0.7,0.5,1,1.2,1,2.1C97.8,14.7,97.5,15.4,96.8,15.9z"/>
	<path d="M147.5,5.3c-4-3.5-9.3-5.3-15.8-5.3h-17.8v29.2l5.5,10.8h12.4c6.4,0,11.7-1.8,15.7-5.3c4.1-3.5,6.1-8.5,6.1-14.7
		S151.5,8.8,147.5,5.3z M138.5,26.5c-1.7,1.8-4,2.7-6.8,2.7h-5.5V10.9h5.5c3,0,5.3,0.8,6.9,2.5c1.6,1.7,2.4,3.9,2.4,6.6
		C141,22.5,140.2,24.7,138.5,26.5z"/>
	<path d="M183.7,22.7c0,1.9-0.6,3.5-1.9,4.7c-1.2,1.2-3,1.8-5.3,1.8s-4.1-0.6-5.3-1.8c-1.2-1.2-1.9-2.8-1.9-4.7V0h-12.5v23.1
		c0,5.1,1.7,9.2,5,12.2c3.3,3.1,8.3,4.6,14.7,4.6c6.5,0,11.4-1.6,14.7-4.6c3.3-3.1,5-7.2,5-12.3V0h-12.5V22.7z"/>
	<polygon points="199.5,10.9 214.4,10.9 199.6,30.2 199.5,30.2 199.5,40 231.2,40 231.2,29.2 216.3,29.2 231.2,9.8 231.2,9.7 
		231.2,0 199.5,0 	"/>
	<polygon points="234.5,40 264.9,40 264.9,29.2 246.9,29.2 246.9,25 263.2,25 263.2,15.1 246.9,15.1 246.9,10.9 264.9,10.9 264.9,0 
		234.5,0 	"/>
	<polygon points="294.3,18.4 280.9,0.1 280.8,0 268.2,0 268.2,40 280.6,40 280.6,20.3 294.8,39.9 294.8,40 306.6,40 306.6,0 
		294.3,0 	"/>
	<path d="M316.7,5.2c0.4-0.3,0.5-0.7,0.5-1.3c0-0.5-0.2-0.9-0.6-1.3c-0.4-0.3-0.8-0.5-1.3-0.5H313v5.7h0.8V5.6h0.9l1.5,2.3h1
		l-1.5-2.3C316.1,5.6,316.4,5.5,316.7,5.2z M313.9,4.9v-2h1.5c0.3,0,0.5,0.1,0.7,0.3s0.3,0.4,0.3,0.7s-0.1,0.5-0.3,0.7
		c-0.2,0.2-0.5,0.3-0.7,0.3H313.9z"/>
	<path d="M318.5,1.5c-1-1-2.1-1.5-3.5-1.5c-1.4,0-2.6,0.5-3.5,1.5c-1,1-1.5,2.2-1.5,3.5s0.5,2.6,1.5,3.5c1,1,2.2,1.5,3.5,1.5
		c1.4,0,2.6-0.5,3.5-1.5c1-1,1.5-2.2,1.5-3.5C319.9,3.6,319.5,2.4,318.5,1.5z M317.9,8c-0.8,0.8-1.8,1.2-3,1.2s-2.2-0.4-3-1.2
		s-1.2-1.8-1.2-3s0.4-2.2,1.2-3c0.8-0.8,1.8-1.2,3-1.2s2.2,0.4,3,1.2c0.8,0.8,1.2,1.8,1.2,3S318.7,7.2,317.9,8z"/>
</g>
</svg>
